<svg width="30px" height="30px" fill="#fd471a" viewBox="-51.2 -51.2 614.40 614.40" xmlns="http://www.w3.org/2000/svg"
 stroke="#fd471a"><g id="SVGRepo_bgCarrier" stroke-width="0" 
 transform="translate(84.47999999999999,84.47999999999999), scale(0.67)">
 <path transform="translate(-51.2, -51.2), scale(19.2)" 
 d="M16,29.90405542756382C19.19592821976032,29.820856962215483,22.278681269262076,28.430004329996198,24.503718170641285,26.134336680270415C26.57146631163987,24.000950707152985,27.353342177864118,20.99631776478002,27.50930690906297,18.02940133732215C27.648717239340737,15.377399209154623,26.435041226811396,13.029410677477783,25.319301481363333,10.619498781075606C24.055836865229153,7.890512544341512,23.57740363812932,3.9158464821355023,20.652119892680293,3.2184056422652407C17.6828640246338,2.5104810487546807,15.869354827352295,6.720474968134742,12.970022846185241,7.675206188430563C9.885149760183998,8.691034891382397,5.891181952182407,6.542329686765161,3.5919499631724054,8.836208971119234C1.2311688024112817,11.19149413827413,1.5345221242208686,15.16522588993555,2.1839819486690892,18.436136748404824C2.8216924862461,21.647874015899532,4.59691405092207,24.495623121453228,7.11647518988698,26.58697260735198C9.624272879614654,28.668557899346396,12.741955661852016,29.98887093978176,16,29.90405542756382" fill="#f9aa71" strokewidth="0"></path></g><g id="SVGRepo_tracerCarrier" stroke-linecap="round" stroke-linejoin="round" stroke="#000000" stroke-width="1.024"></g><g id="SVGRepo_iconCarrier"><path d="M323.56 51.2c-20.8 19.3-39.58 39.59-56.22 59.97C240.08 73.62 206.28 35.53 168 0 69.74 91.17 0 209.96 0 281.6 0 408.85 100.29 512 224 512s224-103.15 224-230.4c0-53.27-51.98-163.14-124.44-230.4zm-19.47 340.65C282.43 407.01 255.72 416 226.86 416 154.71 416 96 368.26 96 290.75c0-38.61 24.31-72.63 72.79-130.75 6.93 7.98 98.83 125.34 98.83 125.34l58.63-66.88c4.14 6.85 7.91 13.55 11.27 19.97 27.35 52.19 15.81 118.97-33.43 153.42z"></path></g></svg>