<?xml version="1.0" encoding="utf-8"?>
<!-- Generator: Adobe Illustrator 25.2.1, SVG Export Plug-In . SVG Version: 6.00 Build 0)  -->
<svg version="1.1" id="Layer_1" xmlns="http://www.w3.org/2000/svg" xmlns:xlink="http://www.w3.org/1999/xlink" x="0px" y="0px"
	 viewBox="0 0 100 200" style="enable-background:new 0 0 100 200;" xml:space="preserve">
<style type="text/css">
	.st0{fill:none;}
	.st1{fill:#2DC720;}
	.st2{fill:#16B609;}
	.st3{fill:#2E241E;}
	.st4{fill:#FFFFFF;}
</style>
<g>
	<path vector-effect="non-scaling-stroke" class="st0" d="M37.8,44.8c-3.3,6.6-4.5,13.6-3.8,21c0.1,1.4,0.1,3.3-0.2,5.8
		c0,0.1,0,0.5,0,1.3c0,0.7-0.3,1.1-0.9,1.4"/>
	<path vector-effect="non-scaling-stroke" class="st0" d="M33,74.3l-19.5-3.7c-0.3-0.1-0.6,0.1-0.8,0.3c-0.6,0.9-0.2,1.5,1.1,1.8
		c3.5,0.8,9.8,2,18.9,3.6"/>
	<path vector-effect="non-scaling-stroke" class="st0" d="M32.8,76.3c-0.4,2.8-1.9,4.8-4.5,6C26.9,83,25.5,83.6,24,84"/>
	<path vector-effect="non-scaling-stroke" class="st0" d="M24,84c-5.4,1.3-10.5,3.2-15.4,5.8c-0.3,0.2-0.5,0.4-0.5,0.7
		c-0.2,1.3,0.3,1.6,1.6,1c4.9-2.3,9.3-4,13.3-5"/>
	<path vector-effect="non-scaling-stroke" class="st0" d="M23,86.5c5.6,0.5,11,1.4,16.5,2.8c0.2,0,0.3,0.2,0.2,0.4
		c0,0,0,0.1-0.1,0.1c-2.1,2.5-3,5.4-2.5,8.7c0.1,0.3,0,0.6-0.1,0.9c-1.2,2.7-1.5,5.6-1.1,8.5c0,0.3,0,0.6-0.2,0.9
		c-0.8,1.6-1.1,3.3-0.8,5.1c0,0.3,0.2,0.6,0.5,0.9c0.5,0.5,0.6,1.1,0.3,1.6c-0.7,1.3-1.2,2.7-1.6,4.1c-0.4,1.5,0,2.5,1.4,2.9
		c0.3,0.1,0.6,0.3,0.6,0.6c0.4,1.3-0.2,1.8-1.6,1.4"/>
	<path vector-effect="non-scaling-stroke" class="st0" d="M34.5,125.5c-2-3.7-5.2-5.9-9.4-6.7c-2.1-0.4-2.7,0.3-1.7,2.3
		c0.7,1.3,2,2.6,4,3.9c0.3,0.2,0.4,0.5,0.4,0.9"/>
	<path vector-effect="non-scaling-stroke" class="st0" d="M27.8,125.8c-4.8,1.4-9.2,3.6-13.1,6.8c-0.3,0.2-0.6,0.3-0.9,0.4
		c-2.3,0.2-4.5,0.4-6.8,0.8c-0.8,0.1-1.4,0.3-1.9,0.6c-0.6,0.4-1.1,0.8-1.6,1.4c-0.8,1-0.6,1.5,0.6,1.5l4.7-0.1
		c0.9,0,1.1,0.3,0.5,0.9c-2.2,2.2-3.3,4.9-3.5,8.1c-0.2,3.1,0.1,6.2,0.8,9.2c0.2,0.8,0.2,1.6,0,2.4c-0.3,1.3-0.4,2-0.4,2.3
		c0,3.2,1,5.8,2.8,7.8c0.6,0.7,1.2,0.7,1.8,0.1c0.3-0.3,0.4-0.8,0.5-1.4c0.1-1.1,0-2.1-0.2-3.1c-0.2-1,0-1.1,0.6-0.3
		c1.7,2.1,3.7,3.7,6,4.8c0.9,0.4,3.8,0.8,8.5,1.3c1.4,0.1,2.9,0.6,4.2,1.3c1.4,0.8,2.8,1.5,4.3,2.1c1.4,0.6,2.8,0.7,4.2,0.4
		c0.8-0.2,1.4-0.6,1.8-1.1c0.8-1.1,0.4-1.9-1.1-2.5c-0.6-0.2-2.2-0.6-4.7-1.2c-0.3-0.1-0.3-0.2,0-0.3l7.1-2.6
		c0.6-0.2,1.3-0.1,1.8,0.4c0.8,0.8,2.9,1,6.3,0.4c0.6-0.1,1.2-0.3,1.8-0.6c1.7-0.8,1.6-1.7-0.4-2.6c-0.2-0.1-0.5-0.2-0.9-0.1
		l-2.6,0.1c-0.5,0-0.5-0.1-0.1-0.3l8.8-3.8c0.3-0.1,0.6,0,0.8,0.2c2.2,2.2,4.9,3.3,8,3.2c0.5,0,0.9-0.2,1.2-0.5
		c0.7-0.7,0.5-1.2-0.6-1.6c-1.9-0.7-3.3-1.5-4.1-2.6c-0.1-0.2-0.1-0.4,0.1-0.5c0,0,0.1,0,0.1-0.1c3.3-1.1,7-1.7,10.9-1.7
		c0.4,0,0.7,0.2,0.8,0.6c0.6,2.3,1.9,4.1,3.8,5.4c0.3,0.2,0.6,0.2,0.9,0.1c0.9-0.6,0.4-2-1.4-4.1c-0.8-0.9-0.6-1.2,0.6-0.9
		c1.8,0.4,3.7,1.3,5.6,2.6c0.3,0.2,0.4,0.5,0.5,0.8c0.2,1,0.3,2.1,0.6,3.1c0.2,1,0.6,1.3,1.3,1.1c0.2-0.1,0.5-0.3,0.6-0.7
		c0.3-1,0.8-0.9,1.4,0.3c0.4,0.8,0.7,1.7,0.8,2.7c0,0.3,0.2,0.6,0.5,0.7c0.8,0.4,1.4,0.2,1.6-0.8c0.1-0.4,0.1-0.9-0.1-1.5
		c-0.7-2-1.8-3.8-3.3-5.4c-1.1-1.1-0.8-1.6,0.8-1.4c0.3,0,0.6-0.1,0.7-0.4c0.3-0.9-0.1-1.6-1.2-2.2"/>
	<path vector-effect="non-scaling-stroke" class="st0" d="M87.5,155.3c1.5-0.9,1.9-1.8,1.2-2.8c-0.4-0.4-1-0.8-2-1
		c-2.2-0.6-4.3-1.2-6.4-2c-0.2-0.1-0.3-0.3-0.2-0.5c0,0,0-0.1,0.1-0.1c3.3-4.2,5.2-9,5.8-14.3c0-0.3-0.1-0.6-0.3-0.9l-2.9-3.2"/>
	<path vector-effect="non-scaling-stroke" class="st0" d="M82.7,130.6c2.3-2.8,3-5.6,2.3-8.5c-0.6-2.5-0.2-4.4,1.2-5.9
		c0.2-0.2,0.3-0.5,0.2-0.8l-0.3-1.5c-0.1-0.3,0-0.6,0.1-0.9c0.6-1.3,0.7-2.9,0.5-4.8c-0.3-2.5,0.1-5.2,1.3-7.9
		c1.5-3.5,1.2-6.4-0.9-8.6c-0.7-0.7-1-1.7-1-2.7c0.2-3.6-0.4-6.5-1.8-8.6c-0.1-0.2-0.3-0.5-0.4-0.9l-1.8-6.2
		c-0.1-0.2-0.3-0.5-0.6-0.7c-1-0.7-1.6-1.6-1.8-2.8c-0.1-0.3-0.2-0.6-0.4-0.8l-2.4-2c-0.3-0.2-0.4-0.6-0.4-1
		c0.9-4.8,0.6-9.2-0.8-13.3"/>
	<path vector-effect="non-scaling-stroke" class="st0" d="M75.8,52.6c3.7-1.2,6.8-3.2,9.2-6.1c1.1-1.3,1.7-2.5,2-3.7
		c0.4-1.4,0.4-2.9,0-4.4c-0.6-2.6-1.7-4.9-3.2-6.9c-1.7-2.3-3.7-3.6-6.1-3.9c-2.4-0.3-5,0.2-7.7,1.5c-4.4,2.1-6.2,5.4-5.5,9.8
		c0,0.3,0,0.5-0.2,0.7"/>
	<path vector-effect="non-scaling-stroke" class="st0" d="M64.2,39.6c-3.4-2.2-7.2-3-11.2-2.5"/>
	<path vector-effect="non-scaling-stroke" class="st0" d="M53,37c1.5-2.6,1.8-5.1,0.9-7.4c-0.8-2.1-2.3-3.7-4.8-4.7
		c-3.4-1.4-7.2-1.4-11.5,0c-3.9,1.3-6.2,3.5-7.1,6.8c-0.4,1.6-0.3,3.2,0.3,5c0.5,1.6,1.3,3.1,2.3,4.6c1.2,1.8,2.7,2.9,4.6,3.5"/>
	<path vector-effect="non-scaling-stroke" class="st0" d="M53,37c-0.6,0.3-1.4,0.6-2.5,0.8c-4.9,0.9-9.2,3.2-12.8,7"/>
	<path vector-effect="non-scaling-stroke" class="st0" d="M82.7,130.6c-0.4-0.7-0.9-1.1-1.6-1.2c-0.3,0-0.6,0.2-0.7,0.5
		c-1.9,6.1-4.5,12-7.7,17.5"/>
	<path vector-effect="non-scaling-stroke" class="st0" d="M72.8,147.3c-0.5,0-0.8,0.2-0.8,0.7c-0.1,0.4-0.2,0.6-0.4,0.8
		c-3,2-6.4,3.1-10,3.5c-0.3,0-0.6,0.2-0.9,0.4c-1.6,1.3-3.1,1-4.3-0.9c-0.3-0.4-0.8-0.7-1.3-0.6c-2.5,0.2-4.1-0.3-4.9-1.6
		c-0.3-0.5-1.3-1.3-2.9-2.3"/>
	<path vector-effect="non-scaling-stroke" class="st0" d="M47.3,147.3l3-11.7"/>
	<path vector-effect="non-scaling-stroke" class="st0" d="M50.2,135.6c0.5,0.8,1,0.8,1.5,0.2c1.3-1.4,2.1-3.2,2.4-5.5
		c0-0.2-0.1-0.5-0.3-0.9l-1.2-1.9c-0.1-0.2-0.4-0.3-0.6-0.2l-3.8,1.5"/>
	<path vector-effect="non-scaling-stroke" class="st0" d="M48.2,128.8c-2.5-0.2-4.6,0.1-6.1,1.1c-1.9,1.2-2.7,3.2-2.4,5.9"/>
	<path vector-effect="non-scaling-stroke" class="st0" d="M39.7,135.8l-3.4-5.3c-0.2-0.3-0.2-0.6-0.2-0.9c0.1-0.6,0.1-1.2,0-1.7
		c-0.1-0.3-0.4-0.5-0.7-0.4l-5.9,0.2"/>
	<path vector-effect="non-scaling-stroke" class="st0" d="M29.5,127.6c-2.2,0-4.1,0.6-5.8,1.9"/>
	<path vector-effect="non-scaling-stroke" class="st0" d="M23.8,129.5c-2.7,1-5.5,2.8-8.3,5.3c-0.4,0.3-0.4,0.9-0.2,1.3
		c1.1,2,1.2,3.9,0.4,5.7c-0.1,0.3-0.2,0.6-0.2,1c0.1,1.9-0.5,2.3-1.8,1.3c-0.1-0.1-0.3-0.4-0.5-0.8l-1.5-3.3c-0.4-0.9-0.9-0.9-1.4,0
		c-2.1,3.1-2.9,6.4-2.6,9.8"/>
	<path vector-effect="non-scaling-stroke" class="st0" d="M7.8,149.8c-0.4,0-0.6,0.2-0.6,0.5c0.2,2.3,0.9,4.4,2.3,6.2"/>
	<path vector-effect="non-scaling-stroke" class="st0" d="M9.5,156.6c2,3.2,4.3,6,7.1,8.2c0.3,0.2,0.7,0.2,1-0.1
		c1.3-1.3,2.6-1.9,4-1.9c0.4,0,0.7-0.1,0.9-0.2l3.4-2.2c0.5-0.3,1.2-0.2,1.5,0.3c0.1,0.1,0.2,0.3,0.2,0.5c0.2,1.9-0.4,3.6-1.8,5.1
		c-0.5,0.5-0.4,0.8,0.3,0.8c4.2-0.1,8.1-0.9,11.9-2.5c0.9-0.4,1.6-1,2.2-1.8c0.6-0.8,1.2-1.6,1.8-2.4c0.5-0.6,0.9-1.1,1.4-1.6
		c2.6-2.2,3.4-1.8,2.3,1.2c-0.4,1.2-0.1,1.5,1.1,0.9c4.4-2.3,8.6-4.1,12.7-5.4c2.2-0.7,4.5-1.5,6.8-2.5c2.3-0.9,4.6-1.6,6.9-2.2"/>
	<path vector-effect="non-scaling-stroke" class="st0" d="M73.2,150.8c0.4,0.3,0.8,0.6,1,1"/>
	<path vector-effect="non-scaling-stroke" class="st0" d="M74.3,151.8c-0.7,0.9-0.4,1.4,0.8,1.5c2.1,0.2,4,0.9,5.8,2
		c0.6,0.3,0.9,0.2,1-0.5"/>
	<path vector-effect="non-scaling-stroke" class="st0" d="M81.8,154.8l5.7,0.5"/>
	<path vector-effect="non-scaling-stroke" class="st0" d="M27.8,125.8c2.3,0.7,4.5,0.6,6.8-0.2"/>
	<path vector-effect="non-scaling-stroke" class="st0" d="M23,86.5c0-1,0.3-1.8,1-2.5"/>
	<path vector-effect="non-scaling-stroke" class="st0" d="M32.8,76.3c1-0.6,1.1-1.3,0.2-2"/>
	<path vector-effect="non-scaling-stroke" class="st0" d="M81.8,154.8l-7.5-3.1"/>
	<path vector-effect="non-scaling-stroke" class="st0" d="M75.8,52.6c-0.6-0.1-1.2-0.1-1.8,0.2c-1.5,0.6-2.8,0-3.9-1.8
		c-1.5-2.4-3.3-4.7-5.4-6.7c-0.2-0.2-0.5-0.3-0.9-0.2c-6.5,1.2-10.8,5-13,11.2c-1.6,4.5-2.4,7.8-2.3,9.7c0.1,4.5-1.3,8.3-4,11.4
		c-1.7,1.9-3.4,3.5-5.2,4.9c-2,1.5-4.2,2.5-6.7,2.9c-0.3,0.1-0.6-0.1-0.7-0.4c-0.2-0.7,0.2-1.3,1.1-1.6c4-1.4,7.5-4,10.4-7.9
		c2-2.7,3.1-6,3.2-9.8c0.1-3.7,1-7.6,2.8-11.7C52,47,56.5,43.3,62.9,42c1.2-0.3,1.7-1.1,1.3-2.4"/>
	<path vector-effect="non-scaling-stroke" class="st0" d="M50.2,135.6c0.7-2.8,0-5-2-6.8"/>
	<path vector-effect="non-scaling-stroke" class="st0" d="M39.7,135.8c1.1,3.2,1.3,6.3,0.7,9.5c-0.3,1.6-0.4,2.7-0.2,3.4
		c0.3,1.2,0.9,2.2,1.8,3.1c1.5,1.6,2.3,2.4,2.4,2.4c1.9,2.2,4.2,3.3,6.6,3.2c1.7,0,2.5-0.9,2.3-2.4c0-0.3-0.2-0.6-0.5-0.8l-6-3.8
		c-0.3-0.2-0.4-0.5-0.4-0.8c0.1-0.9,0.4-1.7,0.9-2.5"/>
	<path vector-effect="non-scaling-stroke" class="st0" d="M72.8,147.3c-0.5,1.3-0.3,2.4,0.5,3.5"/>
	<path vector-effect="non-scaling-stroke" class="st0" d="M9.5,156.6c0.2-0.6,0.6-0.7,1-0.2c2.4,0.5,4.8,0.3,7-0.4
		c1.9-0.6,1.9-1.3,0.1-2.1l-9.9-4"/>
	<path vector-effect="non-scaling-stroke" class="st0" d="M23.8,129.5c0.3,0,0.5,0.3,0.5,0.8c0,1.8,0,3.6,0.1,5.4
		c0.1,2.2,0.7,2.6,1.9,1.3c2.5-2.7,3.5-5.8,3.2-9.5"/>
	<path vector-effect="non-scaling-stroke" class="st0" d="M55,41.2c-3.2-0.3-6.2,0.2-9.1,1.4c-0.4,0.2-0.8,0.4-1,0.8
		c-0.4,0.7-0.2,1.2,0.6,1.4c0.3,0.1,0.6,0,0.9-0.2c2.6-1.3,5.3-1.8,8.3-1.6c0.4,0,0.8,0,1-0.2c0.6-0.3,0.7-0.7,0.3-1.2
		C55.8,41.4,55.4,41.2,55,41.2"/>
	<path vector-effect="non-scaling-stroke" class="st0" d="M40.1,58.2c-2.3-1.5-3.8-1.3-4.5,0.7c-0.4,1.1-0.3,2.2,0.1,3.1
		c0.7,1.6,2,1.8,3.9,0.6C42.1,61.1,42.2,59.7,40.1,58.2"/>
	<path vector-effect="non-scaling-stroke" class="st0" d="M62.3,59.2c-0.9,3.3,0,4.7,2.7,4.4c1.3-0.1,2.4-0.6,3.1-1.4
		c1.1-1.1,1.1-2.4,0.1-4c-0.2-0.3-0.4-0.5-0.8-0.6c-1.7-0.6-3.3-0.3-4.7,0.7C62.6,58.6,62.4,58.9,62.3,59.2"/>
	<path vector-effect="non-scaling-stroke" class="st0" d="M37.7,68.2c0.1,0.3,0.3,0.6,0.6,0.7c0.3,0.1,0.6,0.1,0.9-0.1
		c1.6-1,3.2-1.9,4.8-2.9c0.4-0.2,0.7-0.5,0.9-0.9c0.6-1.1,0.2-1.5-1.1-1.2c-1.8,0.4-3.7,1.6-5.7,3.6C37.8,67.7,37.7,68,37.7,68.2"/>
	<path vector-effect="non-scaling-stroke" class="st0" d="M75.4,69l-0.9,1.1c-0.2,0.2-0.3,0.6-0.1,0.9l1.7,4
		c0.1,0.3,0.4,0.4,0.8,0.3c0.7-0.2,1-0.7,0.9-1.3c-0.1-1.6-0.7-3.3-1.7-4.9c-0.1-0.2-0.4-0.3-0.6-0.2C75.5,69,75.4,69,75.4,69"/>
	<path vector-effect="non-scaling-stroke" class="st0" d="M66,79.6c-0.2,1.2-0.7,2.1-1.6,2.9c-0.3,0.2-0.4,0.6-0.3,0.8l0.8,3.1
		c0.4,1.4,0.9,1.4,1.5,0.1c1-2.1,1.6-4.5,1.8-7.1"/>
	<path vector-effect="non-scaling-stroke" class="st0" d="M68.3,79.3c3.4,0,6.7-0.1,10.1,0c0.5,0,1,0,1.3-0.1
		c1.2-0.3,1.3-0.8,0.3-1.6c-0.2-0.2-0.6-0.3-0.9-0.3c-15.1-0.1-24.9,0.2-29.6,0.7c-1.7,0.2-2,0.8-1.1,1.7c0.2,0.2,0.5,0.3,0.9,0.3
		L66,79.6"/>
	<path vector-effect="non-scaling-stroke" class="st0" d="M68.3,79.3L66,79.6"/>
	<path vector-effect="non-scaling-stroke" class="st0" d="M75.3,89.4c0.6,5.7,1.4,5.5,2.6-0.6c0.1-0.3,0-0.6-0.1-0.9
		c-0.8-1.6-1.3-3.2-1.3-4.8c0-1.4-0.2-1.4-0.5-0.1c-0.4,1.5-0.6,3-0.7,4.5C75.2,88.2,75.2,88.8,75.3,89.4"/>
	<path vector-effect="non-scaling-stroke" class="st0" d="M81.4,87.8c0.1,0.8,0.5,1.8,1.2,2.8c0.1,0.2,0.4,0.3,0.6,0.1
		c0,0,0,0,0.1-0.1c1.8-1.9,2.2-3.8,1-5.8c-0.1-0.3-0.2-0.5-0.3-0.8c-0.4-2.7-0.8-2.7-1.1-0.1c-0.1,0.6-0.4,1.2-0.9,1.9
		C81.6,86.7,81.3,87.3,81.4,87.8"/>
	<path vector-effect="non-scaling-stroke" class="st0" d="M72.5,95.6c-6.4-4.6-13.2-8.7-20.3-12.3c-0.3-0.2-0.6-0.2-0.9-0.1
		c-0.8,0.2-1,0.5-0.8,1.1c0.1,0.3,0.4,0.6,0.9,0.9c7,3.8,13.8,8,20.3,12.6c0.3,0.2,0.6,0.3,0.9,0.3c1.3,0,1.6-0.5,1-1.4
		C73.3,96.3,73,95.9,72.5,95.6"/>
	<path vector-effect="non-scaling-stroke" class="st0" d="M72.8,87.6c0.1-0.3,0.2-0.6,0.2-0.8c0-0.5,0.1-0.8,0.1-1
		c0.4-1.3-0.1-1.7-1.3-1.3c-0.3,0.1-0.5,0.4-0.4,0.7l0.1,3c0,0.2,0.2,0.4,0.4,0.4c0,0,0.1,0,0.1,0C72.4,88.4,72.6,88.1,72.8,87.6"/>
	<path vector-effect="non-scaling-stroke" class="st0" d="M48.9,90c-1,2.2-0.9,4.1,0.3,5.9c0.2,0.2,0.5,0.3,0.8,0.2
		c1.1-0.6,1.7-1.5,1.7-2.9c0-1.1,0.2-2.1,0.5-2.9c0.1-0.3,0-0.7-0.3-0.8c0,0-0.1,0-0.1,0C50.2,89.1,49.2,89.3,48.9,90"/>
	<path vector-effect="non-scaling-stroke" class="st0" d="M46.1,89.5c-1.3-0.3-2,0.1-2.1,1.2c-0.1,1-0.1,1.6-0.2,1.7
		c-0.4,2-0.6,4-0.5,6c0.1,1.2,0.4,1.3,0.9,0.2c1.2-2.4,2-5.2,2.4-8.3C46.6,89.9,46.4,89.6,46.1,89.5"/>
	<path vector-effect="non-scaling-stroke" class="st0" d="M41.1,91.3c-0.8,0.9-1.3,1.9-1.5,3c-0.1,0.7,0.1,0.7,0.5,0.2
		c0.1-0.1,0.1-0.2,0.2-0.4c0.2-1,0.6-1.9,1-2.6C42.1,90.3,42,90.3,41.1,91.3"/>
	<path vector-effect="non-scaling-stroke" class="st0" d="M58.9,97c1.6,0.7,2.7,0.5,3.3-0.8c0.1-0.3,0.2-0.6,0.1-1
		c-1.1-4.1-2.3-3.8-3.7,1C58.5,96.5,58.7,96.9,58.9,97"/>
	<path vector-effect="non-scaling-stroke" class="st0" d="M85.2,94.3l-0.4,5.7c-0.1,1.4,0.3,1.5,1.2,0.4c1.4-1.7,1.3-3.8-0.2-6.2
		C85.4,93.7,85.2,93.8,85.2,94.3"/>
	<path vector-effect="non-scaling-stroke" class="st0" d="M79,113.5c1.5,0.7,2.5,0.3,3-1.2c0.9-2.5,1.2-5.2,1-7.9
		c0-0.3-0.1-1.9-0.2-4.7c-0.2-3.9-2.1-4.6-5.8-2.3c-0.3,0.2-0.4,0.4-0.5,0.8c-0.3,3.6-0.2,7.2,0.3,10.8c0,0.1,0,0.7,0.1,1.8
		C77,111.9,77.7,112.9,79,113.5"/>
	<path vector-effect="non-scaling-stroke" class="st0" d="M57.4,99.1c0.4,2.1,0.5,4.2,0.4,6.2c-0.1,1.7,0.2,2.1,0.9,1.3
		c0.2-0.2,0.3-0.5,0.4-0.9c0.6-1.8,1.4-3.4,2.4-5c0.7-1.1,0.5-1.4-0.8-1c-0.8,0.3-1.7,0-3-0.9C57.5,98.7,57.3,98.8,57.4,99.1"/>
	<path vector-effect="non-scaling-stroke" class="st0" d="M45.4,103.6c-0.2,2.8-0.1,6.2,0.1,10.2c0.1,1.2,0.6,2,1.5,2.2
		c0.3,0.1,0.6,0.2,0.9,0.4c1.2,1,2.3,0.9,3.3-0.6c0.5-0.7,0.7-1.5,0.8-2.3c0.2-3.8,0.2-7.1,0.1-10.1c0,0,0-0.6,0-1.7
		c0.1-2.1-1.2-3.1-3.8-2.9c-2.1,0.2-3.1,1-3,2.6C45.3,102.8,45.4,103.5,45.4,103.6"/>
	<path vector-effect="non-scaling-stroke" class="st0" d="M69.8,105.8c1.1-0.9,1.6-2.2,1.5-3.8c0-0.3,0-0.7,0.1-1
		c0.3-1.1,0.1-1.4-0.9-1c-0.8,0.4-1.4,1.5-1.8,3.2c-0.2,0.9-0.1,1.7,0.4,2.4C69.3,105.9,69.6,106,69.8,105.8
		C69.8,105.8,69.8,105.8,69.8,105.8"/>
	<path vector-effect="non-scaling-stroke" class="st0" d="M37.5,105.3c-0.1,0.5,0,0.6,0.4,0.2c1-0.9,1.4-2.2,1.4-3.6
		c0-0.6-0.2-0.8-0.4-0.4C38.5,101.9,38,103.2,37.5,105.3"/>
	<path vector-effect="non-scaling-stroke" class="st0" d="M43.6,102c-0.2-0.5-0.5-0.7-0.9-0.5c-0.2,0.2-0.4,0.5-0.4,0.8l0,5.5
		c0,1.7,0.4,1.8,1.1,0.3C44.2,106.3,44.3,104.3,43.6,102"/>
	<path vector-effect="non-scaling-stroke" class="st0" d="M73.2,105.5c-0.3,0.9-0.2,1.8,0.1,2.6c0.1,0.3,0.3,0.4,0.5,0.1
		c0.7-0.8,0.8-1.7,0.4-2.8C73.8,104.4,73.5,104.5,73.2,105.5"/>
	<path vector-effect="non-scaling-stroke" class="st0" d="M53.6,108.6c0.2,1,0.6,2.8,1,5.2c0.2,0.9,0.5,1.3,1.1,1.1
		c0.3-0.1,0.5-0.4,0.6-0.7c0.8-2.4,0.6-4.6-0.7-6.7c-0.1-0.2-0.2-0.6-0.2-0.9c0-0.7-0.4-0.8-1.2-0.3c-0.3,0.2-0.6,0.4-1,0.5
		c-1,0.4-1,0.8-0.2,1.2C53.3,108.1,53.5,108.3,53.6,108.6"/>
	<path vector-effect="non-scaling-stroke" class="st0" d="M63.1,106.7c-0.1-0.1-0.3-0.2-0.4-0.2c-0.2,0-0.4,0.3-0.3,0.6
		c0,0,0,0.1,0,0.1l0.9,2.4c0.3,0.7,0.6,0.7,1,0.1c1.1-1.8,0.9-2.7-0.6-2.8C63.5,107,63.3,106.9,63.1,106.7"/>
	<path vector-effect="non-scaling-stroke" class="st0" d="M39.4,108.6c-1.6,1-2.4,2.4-2.6,4c0,0.2,0,0.3,0.2,0l2.6-3.8
		C39.9,108.4,39.9,108.3,39.4,108.6"/>
	<path vector-effect="non-scaling-stroke" class="st0" d="M60.2,108.7c-1,2-0.9,4,0.3,5.9c0.1,0.2,0.4,0.2,0.5,0.1
		c0,0,0.1,0,0.1-0.1c0.9-1.1,1-2.3,0.3-3.6c-0.5-0.9-0.7-1.7-0.6-2.5c0-0.3-0.1-0.5-0.3-0.5c0,0-0.1,0-0.1,0
		C60.3,108.1,60.2,108.4,60.2,108.7"/>
	<path vector-effect="non-scaling-stroke" class="st0" d="M68.3,108.3c-0.1-0.1-0.2-0.1-0.3-0.1c-0.2,0-0.4,0.2-0.4,0.5
		c0,0.1,0,0.1,0,0.2l0.9,2.4c0.3,0.8,0.6,0.8,0.9-0.1c0.6-1.6,0.4-2.5-0.6-2.6C68.7,108.5,68.5,108.4,68.3,108.3"/>
	<path vector-effect="non-scaling-stroke" class="st0" d="M71.8,119.6c0.8,0.1,1.6-1.9,1.9-4.3c0.3-2.5-0.1-4.6-0.9-4.6
		c-0.8-0.1-1.6,1.9-1.9,4.3C70.7,117.4,71.1,119.5,71.8,119.6"/>
	<path vector-effect="non-scaling-stroke" class="st0" d="M42.9,112c-0.1,0.1-0.4,0.3-0.8,0.5c-0.3,0.2-0.5,0.4-0.6,0.7
		c-0.4,1.9-0.5,3.9-0.2,5.8c0.1,0.4,0.2,0.4,0.3,0.1c0.2-0.3,0.3-0.6,0.5-0.9c0.2-0.4,0.3-0.8,0.3-1.4c0-1.4,0.3-2.7,1-3.9
		c0.2-0.3,0.3-0.6,0.2-0.9C43.7,111.4,43.4,111.3,42.9,112"/>
	<path vector-effect="non-scaling-stroke" class="st0" d="M67.3,114c-1.1-2.5-1.7-2.8-1.9-0.8c0,0.2,0,0.5,0.2,0.9l0.8,2.1
		c0.1,0.2,0.3,0.3,0.4,0.3c0,0,0.1,0,0.1,0C67.7,115.9,67.8,115.1,67.3,114"/>
	<path vector-effect="non-scaling-stroke" class="st0" d="M38.6,115.5l-1.5,4c-0.2,0.5-0.1,0.5,0.3,0.2c1.2-1,1.7-2.4,1.5-4.2
		C38.8,115.1,38.7,115.1,38.6,115.5"/>
	<path vector-effect="non-scaling-stroke" class="st0" d="M63.8,116c0-0.2-0.2-0.4-0.4-0.4c0,0,0,0,0,0l-0.1,0
		c-0.2,0-0.4,0.2-0.4,0.4l0,5c0,0.2,0.2,0.4,0.4,0.4c0,0,0,0,0,0l0.1,0c0.2,0,0.4-0.2,0.4-0.4L63.8,116"/>
	<path vector-effect="non-scaling-stroke" class="st0" d="M55.9,118.4c0.9,1.1,2,1.8,3.3,2c0.3,0.1,0.5-0.1,0.6-0.4c0,0,0,0,0,0
		c0.3-1.6-0.2-2.8-1.4-3.9c-0.2-0.1-0.5-0.1-0.8,0.1l-2.1,1.4c-0.2,0.1-0.2,0.2-0.2,0.3c0,0.1,0,0.2,0.1,0.2
		C55.7,118.2,55.9,118.3,55.9,118.4"/>
	<path vector-effect="non-scaling-stroke" class="st0" d="M67,120.2c-0.3,1.8-0.2,3.4,0.2,4.8c0.3,1.1,0.8,1.1,1.3,0.2
		c1.5-2.4,1.7-4.2,0.6-5.6C68,118.2,67.3,118.4,67,120.2"/>
	<path vector-effect="non-scaling-stroke" class="st0" d="M53,119.6c-0.3,1.2-0.3,1.9,0.3,2.3c0.5,0.3,0.8,0.8,0.9,1.3
		c0.4,1.9,0.8,3,1.2,3.2c0.6,0.4,1-0.1,1.1-1.6c0.2-1.9-0.7-3.7-2.8-5.4c-0.2-0.1-0.4-0.1-0.5,0.1C53,119.5,53,119.6,53,119.6"/>
	<path vector-effect="non-scaling-stroke" class="st0" d="M75.9,119.5c-0.4-0.7-0.8-0.4-1.3,0.8c-0.1,0.3,0,0.6,0.2,0.8
		c1.2,0.8,1.7,2.4,1.5,4.7c-0.1,1,0.3,1.3,1.1,0.7c1.3-0.8,1.9-2.4,1.9-4.7c0-0.9,0.1-1.6,0.2-2.1c0-0.2,0.1-0.3,0-0.4
		c0-0.2-0.1-0.3-0.3-0.3c-0.2,0-0.4,0.2-0.6,0.4c-0.5,0.7-1.2,1-2.1,0.7C76.3,120.1,76.1,119.9,75.9,119.5"/>
	<path vector-effect="non-scaling-stroke" class="st0" d="M65,129.5c0.4-1.8,0.4-3.6-0.2-5.4c-0.1-0.3-0.4-0.4-0.6-0.3c0,0,0,0,0,0
		l-1.7,0.7c-0.3,0.1-0.5,0.4-0.4,0.7c0.1,1.4,0.2,2.8,0.3,4.2c0.2,2.1,0.8,2.7,1.8,1.7C64.6,130.7,64.9,130.2,65,129.5"/>
	<path vector-effect="non-scaling-stroke" class="st0" d="M58,133.5c1.3-0.9,1.9-2.2,1.9-3.7c0-1.7,0-3.5-0.1-5.2
		c0-0.3-0.1-0.4-0.3-0.1c-2,2.6-2.7,5.6-1.9,8.8c0,0.2,0.2,0.3,0.3,0.2C57.9,133.5,57.9,133.5,58,133.5"/>
	<path vector-effect="non-scaling-stroke" class="st0" d="M50.5,125.1c0.6-0.8,0.4-1-0.5-0.6c-0.3,0.1-0.5,0.4-0.6,0.7
		C49.2,126.3,49.6,126.3,50.5,125.1"/>
	<path vector-effect="non-scaling-stroke" class="st0" d="M81.3,127c-0.1,1.9,0.2,1.9,0.8,0c0.1-0.3,0-0.6-0.3-0.8
		C81.5,126.1,81.3,126.4,81.3,127"/>
	<path vector-effect="non-scaling-stroke" class="st0" d="M68.5,133.3c-0.6-0.2-1.2-0.5-1.7-0.9c-0.3-0.2-0.3-0.1-0.3,0.2
		c0.3,0.9,0.3,1.8,0,2.8c-0.1,0.4-0.1,0.7,0,0.9l2.2,2.2c0.2,0.2,0.5,0.2,0.8,0c0,0,0.1-0.1,0.1-0.1c1-1.5,1.5-3,1.5-4.5
		c0-0.3-0.2-0.5-0.5-0.5c0,0,0,0,0,0c-0.3,0-0.5,0-0.8,0C69.3,133.5,68.9,133.4,68.5,133.3"/>
	<path vector-effect="non-scaling-stroke" class="st0" d="M61.2,139.8c1.2,2.5,1.9,2.5,1.9-0.1c0-0.4,0.1-0.8,0.2-1.3
		c0.4-1.8-0.1-3.3-1.5-4.5c-0.2-0.2-0.5-0.1-0.7,0.1c0,0,0,0,0,0c-1.5,1.8-2.4,3.9-2.7,6.2c0,0.2-0.1,0.5-0.3,0.9
		c-0.4,1-0.1,2.6,1.1,4.8c0.4,0.7,1.2,1,1.9,0.9c0.4-0.1,0.6-0.6,0.6-1.4c0-0.4-0.2-0.9-0.5-1.3c-0.6-0.9-1.1-1.8-1.6-2.7
		c-0.3-0.5-0.3-0.9-0.3-1.3c0.1-0.6,0.6-0.9,1.3-0.8C60.7,139.3,61,139.5,61.2,139.8"/>
	<path vector-effect="non-scaling-stroke" class="st0" d="M54.9,135c-0.2,1.3,0,2.5,0.8,3.6c0.1,0.2,0.3,0.2,0.5,0.1
		c0,0,0.1-0.1,0.1-0.1c0.7-1.2,0.4-2.4-0.8-3.8C55.2,134.6,55,134.6,54.9,135"/>
	<path vector-effect="non-scaling-stroke" class="st0" d="M72.4,138.2c-0.2,1.7,0.5,2.9,1.8,3.6c0.2,0.1,0.4,0,0.5-0.2
		c0,0,0-0.1,0-0.1c0.3-1.6-0.3-2.9-1.8-3.7c-0.2-0.1-0.5,0-0.6,0.2C72.5,138.1,72.5,138.2,72.4,138.2"/>
	<path vector-effect="non-scaling-stroke" class="st0" d="M51.2,139.5c-0.6,1.6-0.8,3.1-0.5,4.8c0.1,0.5,0.2,0.5,0.3,0.1l1.7-5
		c0.1-0.2,0-0.5-0.3-0.6c0,0-0.1,0-0.1,0C51.8,138.6,51.4,138.9,51.2,139.5"/>
	<path vector-effect="non-scaling-stroke" class="st0" d="M67.5,143.8c0.7-1.7,0.5-2.9-0.6-3.5c-0.2-0.1-0.4,0-0.6,0.2
		c0,0.1,0,0.1-0.1,0.2c-0.1,1.5,0.1,2.6,0.7,3.2c0.1,0.1,0.3,0.1,0.4,0C67.5,143.9,67.5,143.9,67.5,143.8"/>
	<path vector-effect="non-scaling-stroke" class="st0" d="M70.5,144.9c0,0.2,0.1,0.2,0.2,0.1c1.2-0.7,1.4-1.5,0.4-2.4
		c-0.3-0.3-0.5-0.3-0.5,0.1L70.5,144.9"/>
	<path vector-effect="non-scaling-stroke" class="st0" d="M54.9,143.2c-0.7,0-1.1,0.5-1,1.5c0.1,2.6,0.6,2.4,1.6-0.8
		c0.1-0.3-0.1-0.6-0.4-0.7C55,143.3,54.9,143.2,54.9,143.2"/>
	<path vector-effect="non-scaling-stroke" class="st0" d="M66.8,147c-0.8-0.7-1.3-0.7-1.6,0c-0.1,0.3-0.1,0.6,0.2,0.9
		c0.6,0.6,1.3,0.6,2.1-0.1c0.1-0.1,0.1-0.2,0.2-0.2c0-0.1-0.1-0.2-0.2-0.2C67.1,147.2,67,147.1,66.8,147"/>
	<path vector-effect="non-scaling-stroke" class="st0" d="M24.7,163.2c-0.3,1,0,1,0.8,0c0.1-0.2,0.1-0.4,0-0.5c0,0-0.1-0.1-0.1-0.1
		C25,162.5,24.8,162.7,24.7,163.2"/>
</g>
<path class="st1" d="M53,37c-0.6,0.3-1.4,0.6-2.5,0.8c-4.9,0.9-9.2,3.2-12.8,7c-1.9-0.6-3.4-1.7-4.6-3.5c-1-1.5-1.8-3-2.3-4.6
	c-0.6-1.8-0.7-3.4-0.3-5c0.9-3.3,3.2-5.5,7.1-6.8c4.2-1.4,8.1-1.4,11.5,0c2.4,1,4,2.5,4.8,4.7C54.8,32,54.5,34.4,53,37z"/>
<path class="st1" d="M75.8,52.6c-0.6-0.1-1.2-0.1-1.8,0.2c-1.5,0.6-2.8,0-3.9-1.8c-1.5-2.4-3.3-4.7-5.4-6.7
	c-0.2-0.2-0.5-0.3-0.9-0.2c-6.5,1.2-10.8,5-13,11.2c-1.6,4.5-2.4,7.8-2.3,9.7c0.1,4.5-1.3,8.3-4,11.4c-1.7,1.9-3.4,3.5-5.2,4.9
	c-2,1.5-4.2,2.5-6.7,2.9c-0.3,0.1-0.6-0.1-0.7-0.4c-0.2-0.7,0.2-1.3,1.1-1.6c4-1.4,7.5-4,10.4-7.9c2-2.7,3.1-6,3.2-9.8
	c0.1-3.7,1-7.6,2.8-11.7C52,47,56.5,43.3,62.9,42c1.2-0.3,1.7-1.1,1.3-2.4c0.2-0.2,0.3-0.5,0.2-0.7c-0.7-4.5,1.1-7.7,5.5-9.8
	c2.7-1.3,5.3-1.8,7.7-1.5c2.4,0.3,4.4,1.6,6.1,3.9c1.5,2,2.6,4.3,3.2,6.9c0.4,1.5,0.4,3,0,4.4c-0.3,1.2-1,2.5-2,3.7
	C82.5,49.3,79.5,51.4,75.8,52.6z"/>
<path class="st2" d="M64.2,39.6c0.4,1.4,0,2.2-1.3,2.4c-6.4,1.4-10.9,5-13.6,10.9c-1.8,4-2.8,7.9-2.8,11.7c-0.1,3.8-1.2,7.1-3.2,9.8
	c-2.9,3.9-6.4,6.5-10.4,7.9c-1,0.3-1.3,0.9-1.1,1.6c0.1,0.3,0.4,0.4,0.7,0.4c2.5-0.4,4.8-1.4,6.7-2.9c1.8-1.4,3.5-3,5.2-4.9
	c2.8-3.1,4.1-6.9,4-11.4c0-1.9,0.7-5.2,2.3-9.7c2.2-6.3,6.5-10,13-11.2c0.3-0.1,0.6,0,0.9,0.2c2.1,2,3.9,4.2,5.4,6.7
	c1.1,1.8,2.4,2.3,3.9,1.8c0.6-0.2,1.2-0.3,1.8-0.2c1.4,4,1.7,8.5,0.8,13.3c-0.1,0.4,0.1,0.7,0.4,1l2.4,2c0.2,0.2,0.4,0.5,0.4,0.8
	c0.2,1.2,0.8,2.1,1.8,2.8c0.3,0.2,0.6,0.5,0.6,0.7l1.8,6.2c0.1,0.4,0.2,0.7,0.4,0.9c1.4,2.1,2.1,5,1.8,8.6c-0.1,1,0.3,1.9,1,2.7
	c2.1,2.2,2.4,5.1,0.9,8.6c-1.2,2.8-1.6,5.4-1.3,7.9c0.2,1.9,0,3.5-0.5,4.8c-0.1,0.3-0.2,0.7-0.1,0.9l0.3,1.5c0.1,0.3,0,0.6-0.2,0.8
	c-1.4,1.5-1.8,3.4-1.2,5.9c0.7,2.9,0,5.7-2.3,8.5c-0.4-0.7-0.9-1.1-1.6-1.2c-0.3,0-0.6,0.2-0.7,0.5c-1.9,6.1-4.5,12-7.7,17.5
	c-0.5,0-0.8,0.2-0.8,0.7c-0.1,0.4-0.2,0.6-0.4,0.8c-3,2-6.4,3.1-10,3.5c-0.3,0-0.6,0.2-0.9,0.4c-1.6,1.3-3.1,1-4.3-0.9
	c-0.3-0.4-0.8-0.7-1.3-0.6c-2.5,0.2-4.1-0.3-4.9-1.6c-0.3-0.5-1.3-1.3-2.9-2.3l3-11.7c0.5,0.8,1,0.8,1.5,0.2
	c1.3-1.4,2.1-3.2,2.4-5.5c0-0.2-0.1-0.5-0.3-0.9l-1.2-1.9c-0.1-0.2-0.4-0.3-0.6-0.2l-3.8,1.5c-2.5-0.2-4.6,0.1-6.1,1.1
	c-1.9,1.2-2.7,3.2-2.4,5.9l-3.4-5.3c-0.2-0.3-0.2-0.6-0.2-0.9c0.1-0.6,0.1-1.2,0-1.7c-0.1-0.3-0.4-0.5-0.7-0.4l-5.9,0.2
	c-2.2,0-4.1,0.6-5.8,1.9c-2.7,1-5.5,2.8-8.3,5.3c-0.4,0.3-0.4,0.9-0.2,1.3c1.1,2,1.2,3.9,0.4,5.7c-0.1,0.3-0.2,0.6-0.2,1
	c0.1,1.9-0.5,2.3-1.8,1.3c-0.1-0.1-0.3-0.4-0.5-0.8l-1.5-3.3c-0.4-0.9-0.9-0.9-1.4,0c-2.1,3.1-2.9,6.4-2.6,9.8
	c-0.4,0-0.6,0.2-0.6,0.5c0.2,2.3,0.9,4.4,2.3,6.2c2,3.2,4.3,6,7.1,8.2c0.3,0.2,0.7,0.2,1-0.1c1.3-1.3,2.6-1.9,4-1.9
	c0.4,0,0.7-0.1,0.9-0.2l3.4-2.2c0.5-0.3,1.2-0.2,1.5,0.3c0.1,0.1,0.2,0.3,0.2,0.5c0.2,1.9-0.4,3.6-1.8,5.1c-0.5,0.5-0.4,0.8,0.3,0.8
	c4.2-0.1,8.1-0.9,11.9-2.5c0.9-0.4,1.6-1,2.2-1.8c0.6-0.8,1.2-1.6,1.8-2.4c0.5-0.6,0.9-1.1,1.4-1.6c2.6-2.2,3.4-1.8,2.3,1.2
	c-0.4,1.2-0.1,1.5,1.1,0.9c4.4-2.3,8.6-4.1,12.7-5.4c2.2-0.7,4.5-1.5,6.8-2.5c2.3-0.9,4.6-1.6,6.9-2.2c0.4,0.3,0.8,0.6,1,1
	c-0.7,0.9-0.4,1.4,0.8,1.5c2.1,0.2,4,0.9,5.8,2c0.6,0.3,0.9,0.2,1-0.5l5.7,0.5c1.1,0.6,1.5,1.3,1.2,2.2c-0.1,0.3-0.4,0.4-0.7,0.4
	c-1.6-0.1-1.8,0.3-0.8,1.4c1.5,1.6,2.6,3.3,3.3,5.4c0.2,0.5,0.2,1,0.1,1.5c-0.2,0.9-0.7,1.2-1.6,0.8c-0.3-0.1-0.4-0.4-0.5-0.7
	c-0.1-0.9-0.4-1.8-0.8-2.7c-0.6-1.2-1.1-1.3-1.4-0.3c-0.1,0.4-0.3,0.6-0.6,0.7c-0.7,0.2-1.1-0.1-1.3-1.1c-0.2-1-0.4-2.1-0.6-3.1
	c0-0.3-0.2-0.6-0.5-0.8c-1.9-1.3-3.8-2.2-5.6-2.6c-1.2-0.3-1.3,0-0.6,0.9c1.8,2.1,2.3,3.5,1.4,4.1c-0.2,0.2-0.6,0.1-0.9-0.1
	c-1.9-1.3-3.2-3.1-3.8-5.4c-0.1-0.4-0.4-0.6-0.8-0.6c-4,0-7.6,0.6-10.9,1.7c-0.2,0.1-0.3,0.3-0.2,0.5c0,0,0,0.1,0.1,0.1
	c0.8,1,2.2,1.9,4.1,2.6c1.1,0.4,1.3,0.9,0.6,1.6c-0.3,0.3-0.7,0.4-1.2,0.5c-3.2,0.1-5.8-1-8-3.2c-0.2-0.2-0.6-0.3-0.8-0.2l-8.8,3.8
	c-0.5,0.2-0.4,0.3,0.1,0.3l2.6-0.1c0.4,0,0.7,0,0.9,0.1c2,1,2.1,1.8,0.4,2.6c-0.6,0.3-1.2,0.4-1.8,0.6c-3.4,0.6-5.5,0.4-6.3-0.4
	c-0.4-0.5-1.1-0.6-1.8-0.4l-7.1,2.6c-0.3,0.1-0.3,0.2,0,0.3c2.5,0.6,4.1,1,4.7,1.2c1.5,0.6,1.9,1.4,1.1,2.5c-0.4,0.6-1,1-1.8,1.1
	c-1.4,0.3-2.8,0.2-4.2-0.4c-1.5-0.6-2.9-1.3-4.3-2.1c-1.4-0.8-2.8-1.2-4.2-1.3c-4.8-0.4-7.6-0.8-8.5-1.3c-2.3-1.1-4.3-2.7-6-4.8
	c-0.6-0.8-0.8-0.7-0.6,0.3c0.2,0.9,0.2,2,0.2,3.1c0,0.6-0.2,1-0.5,1.4c-0.6,0.7-1.1,0.6-1.8-0.1c-1.8-2-2.8-4.6-2.8-7.8
	c0-0.3,0.1-1.1,0.4-2.3c0.2-0.8,0.2-1.6,0-2.4c-0.7-3-1-6.1-0.8-9.2c0.2-3.3,1.3-6,3.5-8.1c0.6-0.6,0.5-0.9-0.5-0.9l-4.7,0.1
	c-1.2,0-1.4-0.5-0.6-1.5c0.4-0.6,1-1,1.6-1.4c0.5-0.3,1.1-0.5,1.9-0.6c2.3-0.3,4.5-0.6,6.8-0.8c0.3,0,0.6-0.2,0.9-0.4
	c3.9-3.2,8.2-5.4,13.1-6.8c2.3,0.7,4.5,0.6,6.8-0.2c1.4,0.3,2-0.1,1.6-1.4c-0.1-0.3-0.3-0.5-0.6-0.6c-1.3-0.4-1.8-1.3-1.4-2.9
	c0.4-1.4,0.9-2.8,1.6-4.1c0.3-0.5,0.2-1.1-0.3-1.6c-0.3-0.3-0.4-0.6-0.5-0.9c-0.3-1.8,0-3.5,0.8-5.1c0.2-0.3,0.2-0.6,0.2-0.9
	c-0.4-3,0-5.8,1.1-8.5c0.1-0.3,0.2-0.6,0.1-0.9c-0.5-3.3,0.3-6.2,2.5-8.7c0.1-0.1,0.1-0.3,0-0.4c0,0-0.1-0.1-0.1-0.1
	C34.1,88,28.6,87,23,86.5c0-1,0.3-1.8,1-2.5c1.5-0.4,2.9-1,4.3-1.7c2.6-1.2,4.1-3.2,4.5-6c1-0.6,1.1-1.3,0.2-2
	c0.6-0.2,0.9-0.7,0.9-1.4c0-0.8-0.1-1.3,0-1.3c0.3-2.5,0.3-4.4,0.2-5.8c-0.8-7.4,0.5-14.4,3.8-21c3.6-3.8,7.8-6.1,12.8-7
	c1.1-0.2,1.9-0.5,2.5-0.8C57.1,36.5,60.8,37.4,64.2,39.6z M55,41.2c-3.2-0.3-6.2,0.2-9.1,1.4c-0.4,0.2-0.8,0.4-1,0.8
	c-0.4,0.7-0.2,1.2,0.6,1.4c0.3,0.1,0.6,0,0.9-0.2c2.6-1.3,5.3-1.8,8.3-1.6c0.4,0,0.8,0,1-0.2c0.6-0.3,0.7-0.7,0.3-1.2
	C55.8,41.4,55.4,41.2,55,41.2z M40.1,58.2c-2.3-1.5-3.8-1.3-4.5,0.7c-0.4,1.1-0.3,2.2,0.1,3.1c0.7,1.6,2,1.8,3.9,0.6
	C42.1,61.1,42.2,59.7,40.1,58.2z M62.3,59.2c-0.9,3.3,0,4.7,2.7,4.4c1.3-0.1,2.4-0.6,3.1-1.4c1.1-1.1,1.1-2.4,0.1-4
	c-0.2-0.3-0.4-0.5-0.8-0.6c-1.7-0.6-3.3-0.3-4.7,0.7C62.6,58.6,62.4,58.9,62.3,59.2z M37.7,68.2c0.1,0.3,0.3,0.6,0.6,0.7
	c0.3,0.1,0.6,0.1,0.9-0.1c1.6-1,3.2-1.9,4.8-2.9c0.4-0.2,0.7-0.5,0.9-0.9c0.6-1.1,0.2-1.5-1.1-1.2c-1.8,0.4-3.7,1.6-5.7,3.6
	C37.8,67.7,37.7,68,37.7,68.2z M75.4,69l-0.9,1.1c-0.2,0.2-0.3,0.6-0.1,0.9l1.7,4c0.1,0.3,0.4,0.4,0.8,0.3c0.7-0.2,1-0.7,0.9-1.3
	c-0.1-1.6-0.7-3.3-1.7-4.9c-0.1-0.2-0.4-0.3-0.6-0.2C75.5,69,75.4,69,75.4,69z M66,79.6c-0.2,1.2-0.7,2.1-1.6,2.9
	c-0.3,0.2-0.4,0.6-0.3,0.8l0.8,3.1c0.4,1.4,0.9,1.4,1.5,0.1c1-2.1,1.6-4.5,1.8-7.1c3.4,0,6.7-0.1,10.1,0c0.5,0,1,0,1.3-0.1
	c1.2-0.3,1.3-0.8,0.3-1.6c-0.2-0.2-0.6-0.3-0.9-0.3c-15.1-0.1-24.9,0.2-29.6,0.7c-1.7,0.2-2,0.8-1.1,1.7c0.2,0.2,0.5,0.3,0.9,0.3
	L66,79.6z M75.3,89.4c0.6,5.7,1.4,5.5,2.6-0.6c0.1-0.3,0-0.6-0.1-0.9c-0.8-1.6-1.3-3.2-1.3-4.8c0-1.4-0.2-1.4-0.5-0.1
	c-0.4,1.5-0.6,3-0.7,4.5C75.2,88.2,75.2,88.8,75.3,89.4z M81.4,87.8c0.1,0.8,0.5,1.8,1.2,2.8c0.1,0.2,0.4,0.3,0.6,0.1
	c0,0,0,0,0.1-0.1c1.8-1.9,2.2-3.8,1-5.8c-0.1-0.3-0.2-0.5-0.3-0.8c-0.4-2.7-0.8-2.7-1.1-0.1c-0.1,0.6-0.4,1.2-0.9,1.9
	C81.6,86.7,81.3,87.3,81.4,87.8z M72.5,95.6c-6.4-4.6-13.2-8.7-20.3-12.3c-0.3-0.2-0.6-0.2-0.9-0.1c-0.8,0.2-1,0.5-0.8,1.1
	c0.1,0.3,0.4,0.6,0.9,0.9c7,3.8,13.8,8,20.3,12.6c0.3,0.2,0.6,0.3,0.9,0.3c1.3,0,1.6-0.5,1-1.4C73.3,96.3,73,95.9,72.5,95.6z
	 M72.8,87.6c0.1-0.3,0.2-0.6,0.2-0.8c0-0.5,0.1-0.8,0.1-1c0.4-1.3-0.1-1.7-1.3-1.3c-0.3,0.1-0.5,0.4-0.4,0.7l0.1,3
	c0,0.2,0.2,0.4,0.4,0.4c0,0,0.1,0,0.1,0C72.4,88.4,72.6,88.1,72.8,87.6z M48.9,90c-1,2.2-0.9,4.1,0.3,5.9c0.2,0.2,0.5,0.3,0.8,0.2
	c1.1-0.6,1.7-1.5,1.7-2.9c0-1.1,0.2-2.1,0.5-2.9c0.1-0.3,0-0.7-0.3-0.8c0,0-0.1,0-0.1,0C50.2,89.1,49.2,89.3,48.9,90z M46.1,89.5
	c-1.3-0.3-2,0.1-2.1,1.2c-0.1,1-0.1,1.6-0.2,1.7c-0.4,2-0.6,4-0.5,6c0.1,1.2,0.4,1.3,0.9,0.2c1.2-2.4,2-5.2,2.4-8.3
	C46.6,89.9,46.4,89.6,46.1,89.5z M41.1,91.3c-0.8,0.9-1.3,1.9-1.5,3c-0.1,0.7,0.1,0.7,0.5,0.2c0.1-0.1,0.1-0.2,0.2-0.4
	c0.2-1,0.6-1.9,1-2.6C42.1,90.3,42,90.3,41.1,91.3z M58.9,97c1.6,0.7,2.7,0.5,3.3-0.8c0.1-0.3,0.2-0.6,0.1-1c-1.1-4.1-2.3-3.8-3.7,1
	C58.5,96.5,58.7,96.9,58.9,97z M85.2,94.3l-0.4,5.7c-0.1,1.4,0.3,1.5,1.2,0.4c1.4-1.7,1.3-3.8-0.2-6.2
	C85.4,93.7,85.2,93.8,85.2,94.3z M79,113.5c1.5,0.7,2.5,0.3,3-1.2c0.9-2.5,1.2-5.2,1-7.9c0-0.3-0.1-1.9-0.2-4.7
	c-0.2-3.9-2.1-4.6-5.8-2.3c-0.3,0.2-0.4,0.4-0.5,0.8c-0.3,3.6-0.2,7.2,0.3,10.8c0,0.1,0,0.7,0.1,1.8C77,111.9,77.7,112.9,79,113.5z
	 M57.4,99.1c0.4,2.1,0.5,4.2,0.4,6.2c-0.1,1.7,0.2,2.1,0.9,1.3c0.2-0.2,0.3-0.5,0.4-0.9c0.6-1.8,1.4-3.4,2.4-5
	c0.7-1.1,0.5-1.4-0.8-1c-0.8,0.3-1.7,0-3-0.9C57.5,98.7,57.3,98.8,57.4,99.1z M45.4,103.6c-0.2,2.8-0.1,6.2,0.1,10.2
	c0.1,1.2,0.6,2,1.5,2.2c0.3,0.1,0.6,0.2,0.9,0.4c1.2,1,2.3,0.9,3.3-0.6c0.5-0.7,0.7-1.5,0.8-2.3c0.2-3.8,0.2-7.1,0.1-10.1
	c0,0,0-0.6,0-1.7c0.1-2.1-1.2-3.1-3.8-2.9c-2.1,0.2-3.1,1-3,2.6C45.3,102.8,45.4,103.5,45.4,103.6z M69.8,105.8
	c1.1-0.9,1.6-2.2,1.5-3.8c0-0.3,0-0.7,0.1-1c0.3-1.1,0.1-1.4-0.9-1c-0.8,0.4-1.4,1.5-1.8,3.2c-0.2,0.9-0.1,1.7,0.4,2.4
	C69.3,105.9,69.6,106,69.8,105.8C69.8,105.8,69.8,105.8,69.8,105.8z M37.5,105.3c-0.1,0.5,0,0.6,0.4,0.2c1-0.9,1.4-2.2,1.4-3.6
	c0-0.6-0.2-0.8-0.4-0.4C38.5,101.9,38,103.2,37.5,105.3z M43.6,102c-0.2-0.5-0.5-0.7-0.9-0.5c-0.2,0.2-0.4,0.5-0.4,0.8l0,5.5
	c0,1.7,0.4,1.8,1.1,0.3C44.2,106.3,44.3,104.3,43.6,102z M73.2,105.5c-0.3,0.9-0.2,1.8,0.1,2.6c0.1,0.3,0.3,0.4,0.5,0.1
	c0.7-0.8,0.8-1.7,0.4-2.8C73.8,104.4,73.5,104.5,73.2,105.5z M53.6,108.6c0.2,1,0.6,2.8,1,5.2c0.2,0.9,0.5,1.3,1.1,1.1
	c0.3-0.1,0.5-0.4,0.6-0.7c0.8-2.4,0.6-4.6-0.7-6.7c-0.1-0.2-0.2-0.6-0.2-0.9c0-0.7-0.4-0.8-1.2-0.3c-0.3,0.2-0.6,0.4-1,0.5
	c-1,0.4-1,0.8-0.2,1.2C53.3,108.1,53.5,108.3,53.6,108.6z M63.1,106.7c-0.1-0.1-0.3-0.2-0.4-0.2c-0.2,0-0.4,0.3-0.3,0.6
	c0,0,0,0.1,0,0.1l0.9,2.4c0.3,0.7,0.6,0.7,1,0.1c1.1-1.8,0.9-2.7-0.6-2.8C63.5,107,63.3,106.9,63.1,106.7z M39.4,108.6
	c-1.6,1-2.4,2.4-2.6,4c0,0.2,0,0.3,0.2,0l2.6-3.8C39.9,108.4,39.9,108.3,39.4,108.6z M60.2,108.7c-1,2-0.9,4,0.3,5.9
	c0.1,0.2,0.4,0.2,0.5,0.1c0,0,0.1,0,0.1-0.1c0.9-1.1,1-2.3,0.3-3.6c-0.5-0.9-0.7-1.7-0.6-2.5c0-0.3-0.1-0.5-0.3-0.5c0,0-0.1,0-0.1,0
	C60.3,108.1,60.2,108.4,60.2,108.7z M68.3,108.3c-0.1-0.1-0.2-0.1-0.3-0.1c-0.2,0-0.4,0.2-0.4,0.5c0,0.1,0,0.1,0,0.2l0.9,2.4
	c0.3,0.8,0.6,0.8,0.9-0.1c0.6-1.6,0.4-2.5-0.6-2.6C68.7,108.5,68.5,108.4,68.3,108.3z M71.8,119.6c0.8,0.1,1.6-1.9,1.9-4.3
	c0.3-2.5-0.1-4.6-0.9-4.6c-0.8-0.1-1.6,1.9-1.9,4.3C70.7,117.4,71.1,119.5,71.8,119.6z M42.9,112c-0.1,0.1-0.4,0.3-0.8,0.5
	c-0.3,0.2-0.5,0.4-0.6,0.7c-0.4,1.9-0.5,3.9-0.2,5.8c0.1,0.4,0.2,0.4,0.3,0.1c0.2-0.3,0.3-0.6,0.5-0.9c0.2-0.4,0.3-0.8,0.3-1.4
	c0-1.4,0.3-2.7,1-3.9c0.2-0.3,0.3-0.6,0.2-0.9C43.7,111.4,43.4,111.3,42.9,112z M67.3,114c-1.1-2.5-1.7-2.8-1.9-0.8
	c0,0.2,0,0.5,0.2,0.9l0.8,2.1c0.1,0.2,0.3,0.3,0.4,0.3c0,0,0.1,0,0.1,0C67.7,115.9,67.8,115.1,67.3,114z M38.6,115.5l-1.5,4
	c-0.2,0.5-0.1,0.5,0.3,0.2c1.2-1,1.7-2.4,1.5-4.2C38.8,115.1,38.7,115.1,38.6,115.5z M63.8,116c0-0.2-0.2-0.4-0.4-0.4c0,0,0,0,0,0
	l-0.1,0c-0.2,0-0.4,0.2-0.4,0.4l0,5c0,0.2,0.2,0.4,0.4,0.4c0,0,0,0,0,0l0.1,0c0.2,0,0.4-0.2,0.4-0.4L63.8,116z M55.9,118.4
	c0.9,1.1,2,1.8,3.3,2c0.3,0.1,0.5-0.1,0.6-0.4c0,0,0,0,0,0c0.3-1.6-0.2-2.8-1.4-3.9c-0.2-0.1-0.5-0.1-0.8,0.1l-2.1,1.4
	c-0.2,0.1-0.2,0.2-0.2,0.3c0,0.1,0,0.2,0.1,0.2C55.7,118.2,55.9,118.3,55.9,118.4z M67,120.2c-0.3,1.8-0.2,3.4,0.2,4.8
	c0.3,1.1,0.8,1.1,1.3,0.2c1.5-2.4,1.7-4.2,0.6-5.6C68,118.2,67.3,118.4,67,120.2z M53,119.6c-0.3,1.2-0.3,1.9,0.3,2.3
	c0.5,0.3,0.8,0.8,0.9,1.3c0.4,1.9,0.8,3,1.2,3.2c0.6,0.4,1-0.1,1.1-1.6c0.2-1.9-0.7-3.7-2.8-5.4c-0.2-0.1-0.4-0.1-0.5,0.1
	C53,119.5,53,119.6,53,119.6z M75.9,119.5c-0.4-0.7-0.8-0.4-1.3,0.8c-0.1,0.3,0,0.6,0.2,0.8c1.2,0.8,1.7,2.4,1.5,4.7
	c-0.1,1,0.3,1.3,1.1,0.7c1.3-0.8,1.9-2.4,1.9-4.7c0-0.9,0.1-1.6,0.2-2.1c0-0.2,0.1-0.3,0-0.4c0-0.2-0.1-0.3-0.3-0.3
	c-0.2,0-0.4,0.2-0.6,0.4c-0.5,0.7-1.2,1-2.1,0.7C76.3,120.1,76.1,119.9,75.9,119.5z M65,129.5c0.4-1.8,0.4-3.6-0.2-5.4
	c-0.1-0.3-0.4-0.4-0.6-0.3c0,0,0,0,0,0l-1.7,0.7c-0.3,0.1-0.5,0.4-0.4,0.7c0.1,1.4,0.2,2.8,0.3,4.2c0.2,2.1,0.8,2.7,1.8,1.7
	C64.6,130.7,64.9,130.2,65,129.5z M58,133.5c1.3-0.9,1.9-2.2,1.9-3.7c0-1.7,0-3.5-0.1-5.2c0-0.3-0.1-0.4-0.3-0.1
	c-2,2.6-2.7,5.6-1.9,8.8c0,0.2,0.2,0.3,0.3,0.2C57.9,133.5,57.9,133.5,58,133.5z M50.5,125.1c0.6-0.8,0.4-1-0.5-0.6
	c-0.3,0.1-0.5,0.4-0.6,0.7C49.2,126.3,49.6,126.3,50.5,125.1z M81.3,127c-0.1,1.9,0.2,1.9,0.8,0c0.1-0.3,0-0.6-0.3-0.8
	C81.5,126.1,81.3,126.4,81.3,127z M68.5,133.3c-0.6-0.2-1.2-0.5-1.7-0.9c-0.3-0.2-0.3-0.1-0.3,0.2c0.3,0.9,0.3,1.8,0,2.8
	c-0.1,0.4-0.1,0.7,0,0.9l2.2,2.2c0.2,0.2,0.5,0.2,0.8,0c0,0,0.1-0.1,0.1-0.1c1-1.5,1.5-3,1.5-4.5c0-0.3-0.2-0.5-0.5-0.5c0,0,0,0,0,0
	c-0.3,0-0.5,0-0.8,0C69.3,133.5,68.9,133.4,68.5,133.3z M61.2,139.8c1.2,2.5,1.9,2.5,1.9-0.1c0-0.4,0.1-0.8,0.2-1.3
	c0.4-1.8-0.1-3.3-1.5-4.5c-0.2-0.2-0.5-0.1-0.7,0.1c0,0,0,0,0,0c-1.5,1.8-2.4,3.9-2.7,6.2c0,0.2-0.1,0.5-0.3,0.9
	c-0.4,1-0.1,2.6,1.1,4.8c0.4,0.7,1.2,1,1.9,0.9c0.4-0.1,0.6-0.6,0.6-1.4c0-0.4-0.2-0.9-0.5-1.3c-0.6-0.9-1.1-1.8-1.6-2.7
	c-0.3-0.5-0.3-0.9-0.3-1.3c0.1-0.6,0.6-0.9,1.3-0.8C60.7,139.3,61,139.5,61.2,139.8z M54.9,135c-0.2,1.3,0,2.5,0.8,3.6
	c0.1,0.2,0.3,0.2,0.5,0.1c0,0,0.1-0.1,0.1-0.1c0.7-1.2,0.4-2.4-0.8-3.8C55.2,134.6,55,134.6,54.9,135z M72.4,138.2
	c-0.2,1.7,0.5,2.9,1.8,3.6c0.2,0.1,0.4,0,0.5-0.2c0,0,0-0.1,0-0.1c0.3-1.6-0.3-2.9-1.8-3.7c-0.2-0.1-0.5,0-0.6,0.2
	C72.5,138.1,72.5,138.2,72.4,138.2z M51.2,139.5c-0.6,1.6-0.8,3.1-0.5,4.8c0.1,0.5,0.2,0.5,0.3,0.1l1.7-5c0.1-0.2,0-0.5-0.3-0.6
	c0,0-0.1,0-0.1,0C51.8,138.6,51.4,138.9,51.2,139.5z M67.5,143.8c0.7-1.7,0.5-2.9-0.6-3.5c-0.2-0.1-0.4,0-0.6,0.2
	c0,0.1,0,0.1-0.1,0.2c-0.1,1.5,0.1,2.6,0.7,3.2c0.1,0.1,0.3,0.1,0.4,0C67.5,143.9,67.5,143.9,67.5,143.8z M70.5,144.9
	c0,0.2,0.1,0.2,0.2,0.1c1.2-0.7,1.4-1.5,0.4-2.4c-0.3-0.3-0.5-0.3-0.5,0.1L70.5,144.9z M54.9,143.2c-0.7,0-1.1,0.5-1,1.5
	c0.1,2.6,0.6,2.4,1.6-0.8c0.1-0.3-0.1-0.6-0.4-0.7C55,143.3,54.9,143.2,54.9,143.2z M66.8,147c-0.8-0.7-1.3-0.7-1.6,0
	c-0.1,0.3-0.1,0.6,0.2,0.9c0.6,0.6,1.3,0.6,2.1-0.1c0.1-0.1,0.1-0.2,0.2-0.2c0-0.1-0.1-0.2-0.2-0.2C67.1,147.2,67,147.1,66.8,147z
	 M24.7,163.2c-0.3,1,0,1,0.8,0c0.1-0.2,0.1-0.4,0-0.5c0,0-0.1-0.1-0.1-0.1C25,162.5,24.8,162.7,24.7,163.2z"/>
<path class="st1" d="M56,41.6c0.4,0.5,0.3,0.9-0.3,1.2c-0.3,0.1-0.6,0.2-1,0.2c-2.9-0.2-5.7,0.3-8.3,1.6c-0.3,0.2-0.7,0.2-0.9,0.2
	c-0.8-0.2-1-0.6-0.6-1.4c0.2-0.3,0.5-0.6,1-0.8c2.9-1.2,5.9-1.7,9.1-1.4C55.4,41.2,55.8,41.4,56,41.6z"/>
<path class="st3" d="M40.1,58.2c2.2,1.4,2,2.9-0.4,4.4c-1.9,1.2-3.2,1-3.9-0.6c-0.5-1-0.5-2-0.1-3.1C36.3,57,37.7,56.7,40.1,58.2z"
	/>
<path class="st3" d="M62.8,58.4c1.4-1.1,2.9-1.3,4.7-0.7c0.3,0.1,0.6,0.3,0.8,0.6c1.1,1.6,1,2.9-0.1,4c-0.8,0.8-1.8,1.2-3.1,1.4
	c-2.7,0.3-3.7-1.2-2.7-4.4C62.4,58.9,62.6,58.6,62.8,58.4z"/>
<path class="st1" d="M38,67.4c2-2,3.9-3.2,5.7-3.6c1.3-0.3,1.6,0.1,1.1,1.2c-0.2,0.3-0.5,0.6-0.9,0.9c-1.6,1-3.2,1.9-4.8,2.9
	c-0.3,0.2-0.7,0.2-0.9,0.1c-0.3-0.1-0.5-0.4-0.6-0.7C37.7,68,37.8,67.7,38,67.4z"/>
<path class="st1" d="M75.4,69c0.2-0.2,0.4-0.2,0.6,0c0,0,0.1,0.1,0.1,0.1c1,1.6,1.5,3.3,1.7,4.9c0,0.7-0.3,1.1-0.9,1.3
	c-0.3,0.1-0.6,0-0.8-0.3l-1.7-4c-0.1-0.3-0.1-0.7,0.1-0.9L75.4,69z"/>
<path class="st3" d="M33,74.3c0.8,0.7,0.8,1.4-0.2,2c-9.2-1.6-15.5-2.8-18.9-3.6c-1.4-0.3-1.8-0.9-1.1-1.8c0.2-0.2,0.5-0.4,0.8-0.3
	L33,74.3z"/>
<path class="st3" d="M68.3,79.3L66,79.6l-16.7,0.5c-0.3,0-0.7-0.1-0.9-0.3c-0.9-1-0.6-1.5,1.1-1.7c4.6-0.5,14.5-0.8,29.6-0.7
	c0.3,0,0.7,0.1,0.9,0.3c1,0.7,0.9,1.3-0.3,1.6c-0.3,0.1-0.8,0.1-1.3,0.1C75,79.3,71.6,79.3,68.3,79.3z"/>
<path class="st1" d="M68.3,79.3c-0.2,2.6-0.8,5-1.8,7.1c-0.6,1.4-1.2,1.4-1.5-0.1l-0.8-3.1c-0.1-0.3,0-0.6,0.3-0.8
	c0.8-0.8,1.4-1.8,1.6-2.9L68.3,79.3z"/>
<path class="st1" d="M75.3,87.5c0.1-1.5,0.4-3,0.7-4.5c0.3-1.4,0.5-1.3,0.5,0.1c0,1.6,0.4,3.2,1.3,4.8c0.1,0.3,0.2,0.6,0.1,0.9
	c-1.2,6.1-2.1,6.3-2.6,0.6C75.2,88.8,75.2,88.2,75.3,87.5z"/>
<path class="st1" d="M82.1,85.9c0.5-0.7,0.8-1.3,0.9-1.9c0.3-2.6,0.7-2.6,1.1,0.1c0,0.3,0.1,0.5,0.3,0.8c1.2,2,0.8,3.9-1,5.8
	c-0.2,0.2-0.5,0.2-0.6,0c0,0,0,0-0.1-0.1c-0.7-1.1-1.1-2-1.2-2.8C81.3,87.3,81.6,86.7,82.1,85.9z"/>
<path class="st3" d="M73.5,96.6c0.6,0.9,0.3,1.4-1,1.4c-0.3,0-0.6-0.1-0.9-0.3c-6.5-4.6-13.3-8.8-20.3-12.6
	c-0.5-0.3-0.8-0.6-0.9-0.9c-0.2-0.5,0.1-0.9,0.8-1.1c0.3-0.1,0.6,0,0.9,0.1c7.1,3.6,13.8,7.7,20.3,12.3C73,95.9,73.3,96.3,73.5,96.6
	z"/>
<path class="st3" d="M24,84c-0.7,0.7-1,1.5-1,2.5c-4,1-8.4,2.7-13.3,5c-1.3,0.6-1.8,0.3-1.6-1c0-0.3,0.2-0.6,0.5-0.7
	C13.5,87.2,18.6,85.3,24,84z"/>
<path class="st1" d="M72.8,87.6c-0.2,0.5-0.4,0.8-0.8,1c-0.2,0.1-0.4,0-0.5-0.2c0,0,0-0.1,0-0.2l-0.1-3c0-0.3,0.2-0.6,0.4-0.7
	c1.2-0.4,1.6,0,1.3,1.3c0,0.1-0.1,0.5-0.1,1C73,87.1,72.9,87.3,72.8,87.6z"/>
<path class="st1" d="M48.9,90c0.3-0.7,1.2-0.9,2.8-0.5c0.3,0.1,0.5,0.4,0.5,0.7c0,0,0,0.1,0,0.1c-0.4,0.9-0.5,1.8-0.5,2.9
	c0,1.4-0.5,2.3-1.7,2.9c-0.3,0.1-0.6,0-0.8-0.2C48,94.1,47.9,92.1,48.9,90z"/>
<path class="st1" d="M46.1,89.5c0.3,0.1,0.6,0.4,0.5,0.7c-0.3,3.1-1.1,5.9-2.4,8.3c-0.6,1.1-0.9,1-0.9-0.2c-0.1-2,0.1-4,0.5-6
	c0-0.1,0.1-0.6,0.2-1.7C44,89.6,44.7,89.2,46.1,89.5z"/>
<path class="st1" d="M41.1,91.3c0.9-1,0.9-1,0.2,0.2c-0.5,0.7-0.8,1.6-1,2.6c0,0.1-0.1,0.3-0.2,0.4c-0.4,0.5-0.6,0.5-0.5-0.2
	C39.8,93.2,40.3,92.2,41.1,91.3z"/>
<path class="st1" d="M58.9,97c-0.3-0.1-0.4-0.5-0.3-0.8c1.4-4.7,2.6-5.1,3.7-1c0.1,0.3,0.1,0.7-0.1,1C61.6,97.5,60.5,97.8,58.9,97z"
	/>
<path class="st1" d="M85.2,94.3c0-0.5,0.2-0.6,0.5-0.1c1.5,2.4,1.6,4.4,0.2,6.2c-0.9,1.1-1.2,1-1.2-0.4L85.2,94.3z"/>
<path class="st3" d="M79,113.5c-1.3-0.6-2-1.6-2-2.8c-0.1-1.1-0.1-1.7-0.1-1.8c-0.6-3.6-0.7-7.2-0.3-10.8c0-0.3,0.2-0.6,0.5-0.8
	c3.7-2.3,5.7-1.5,5.8,2.3c0.1,2.8,0.2,4.3,0.2,4.7c0.2,2.7-0.2,5.4-1,7.9C81.5,113.8,80.5,114.2,79,113.5z"/>
<path class="st1" d="M57.4,99.1c-0.1-0.4,0.1-0.5,0.4-0.2c1.2,0.9,2.2,1.2,3,0.9c1.2-0.4,1.5-0.1,0.8,1c-1.1,1.5-1.9,3.2-2.4,5
	c-0.1,0.4-0.3,0.7-0.4,0.9c-0.7,0.8-1,0.4-0.9-1.3C57.9,103.3,57.8,101.3,57.4,99.1z"/>
<path class="st3" d="M45.2,101.4c-0.1-1.6,0.9-2.5,3-2.6c2.6-0.2,3.9,0.8,3.8,2.9c0,1.1-0.1,1.7,0,1.7c0.1,3,0.1,6.3-0.1,10.1
	c0,0.8-0.3,1.6-0.8,2.3c-1,1.4-2.1,1.6-3.3,0.6c-0.2-0.2-0.5-0.3-0.9-0.4c-0.9-0.2-1.4-0.9-1.5-2.2c-0.3-4-0.3-7.4-0.1-10.2
	C45.4,103.5,45.3,102.8,45.2,101.4z"/>
<path class="st1" d="M69.1,105.7c-0.5-0.7-0.6-1.5-0.4-2.4c0.4-1.7,1-2.8,1.8-3.2c0.9-0.4,1.2-0.1,0.9,1c-0.1,0.3-0.1,0.6-0.1,1
	c0.2,1.6-0.3,2.8-1.5,3.8C69.6,106,69.3,106,69.1,105.7C69.2,105.7,69.1,105.7,69.1,105.7z"/>
<path class="st1" d="M37.5,105.3c0.6-2.1,1-3.4,1.3-3.8c0.3-0.3,0.4-0.2,0.4,0.4c0,1.5-0.4,2.7-1.4,3.6
	C37.4,105.9,37.3,105.8,37.5,105.3z"/>
<path class="st1" d="M43.6,102c0.7,2.3,0.7,4.4-0.2,6.1c-0.8,1.5-1.1,1.4-1.1-0.3l0-5.5c0-0.4,0.2-0.7,0.4-0.8
	C43.1,101.3,43.4,101.4,43.6,102z"/>
<path class="st1" d="M73.2,105.5c0.3-1,0.6-1,1,0c0.4,1,0.3,1.9-0.4,2.8c-0.2,0.3-0.4,0.3-0.5-0.1C73,107.3,72.9,106.4,73.2,105.5z"
	/>
<path class="st1" d="M53,107.9c-0.8-0.4-0.8-0.8,0.2-1.2c0.3-0.1,0.6-0.3,1-0.5c0.8-0.5,1.2-0.4,1.2,0.3c0,0.4,0.1,0.7,0.2,0.9
	c1.2,2.1,1.5,4.3,0.7,6.7c-0.1,0.3-0.3,0.6-0.6,0.7c-0.6,0.2-1-0.1-1.1-1.1c-0.4-2.4-0.7-4.2-1-5.2C53.5,108.3,53.3,108.1,53,107.9z
	"/>
<path class="st1" d="M63.7,107c1.5,0.1,1.7,1,0.6,2.8c-0.4,0.6-0.7,0.6-1-0.1l-0.9-2.4c-0.1-0.3,0-0.6,0.2-0.7c0,0,0.1,0,0.1,0
	c0.1,0,0.3,0,0.4,0.2C63.3,106.9,63.5,107,63.7,107z"/>
<path class="st1" d="M39.4,108.6c0.4-0.3,0.5-0.2,0.2,0.2l-2.6,3.8c-0.1,0.2-0.2,0.2-0.2,0C37,110.9,37.9,109.6,39.4,108.6z"/>
<path class="st1" d="M60.2,108.7c0-0.4,0.1-0.6,0.3-0.7c0.2,0,0.4,0.1,0.4,0.4c0,0.1,0,0.1,0,0.2c-0.1,0.8,0.1,1.6,0.6,2.5
	c0.7,1.3,0.6,2.5-0.3,3.6c-0.1,0.2-0.4,0.2-0.5,0c0,0-0.1-0.1-0.1-0.1C59.3,112.8,59.2,110.8,60.2,108.7z"/>
<path class="st1" d="M68.9,108.5c1,0.2,1.2,1.1,0.6,2.6c-0.3,0.8-0.6,0.8-0.9,0.1l-0.9-2.4c-0.1-0.2,0-0.5,0.2-0.6c0,0,0.1,0,0.2,0
	c0.1,0,0.2,0,0.3,0.1C68.5,108.4,68.7,108.5,68.9,108.5z"/>
<ellipse transform="matrix(0.1115 -0.9938 0.9938 0.1115 -50.1084 174.124)" class="st1" cx="72.3" cy="115.1" rx="4.5" ry="1.4"/>
<path class="st1" d="M42.9,112c0.5-0.7,0.8-0.6,0.8,0.1c0,0.3-0.1,0.6-0.2,0.9c-0.7,1.2-1,2.5-1,3.9c0,0.6-0.1,1-0.3,1.4
	c-0.1,0.3-0.3,0.6-0.5,0.9c-0.2,0.3-0.3,0.3-0.3-0.1c-0.3-1.9-0.2-3.9,0.2-5.8c0.1-0.3,0.3-0.6,0.6-0.7
	C42.6,112.3,42.9,112.1,42.9,112z"/>
<path class="st1" d="M67.3,114c0.5,1.1,0.3,1.9-0.4,2.5c-0.1,0.1-0.3,0.1-0.5-0.1c0,0,0-0.1-0.1-0.1l-0.8-2.1
	c-0.2-0.4-0.2-0.7-0.2-0.9C65.6,111.2,66.3,111.5,67.3,114z"/>
<path class="st1" d="M38.6,115.5c0.1-0.4,0.2-0.4,0.3,0.1c0.2,1.8-0.2,3.2-1.5,4.2c-0.4,0.3-0.5,0.3-0.3-0.2L38.6,115.5z"/>
<path class="st1" d="M63.3,115.6L63.3,115.6c0.3,0,0.5,0.2,0.5,0.4l0,5c0,0.2-0.2,0.4-0.4,0.4l-0.1,0c-0.2,0-0.4-0.2-0.4-0.4l0-5
	C62.8,115.8,63,115.6,63.3,115.6z"/>
<path class="st1" d="M55.4,118c-0.1,0-0.1-0.1-0.1-0.2c0-0.1,0.1-0.2,0.2-0.3l2.1-1.4c0.3-0.2,0.6-0.2,0.8-0.1
	c1.2,1,1.7,2.3,1.4,3.9c0,0.3-0.3,0.5-0.6,0.4c0,0,0,0,0,0c-1.3-0.3-2.5-1-3.3-2C55.9,118.3,55.7,118.2,55.4,118z"/>
<path class="st1" d="M67,120.2c0.3-1.7,1-1.9,2.1-0.6c1.1,1.4,0.9,3.2-0.6,5.6c-0.6,0.9-1,0.9-1.3-0.2
	C66.8,123.6,66.8,121.9,67,120.2z"/>
<path class="st1" d="M34.5,125.5c-2.2,0.9-4.5,1-6.8,0.2c0.1-0.4,0-0.7-0.4-0.9c-2-1.3-3.4-2.6-4-3.9c-1-1.9-0.4-2.7,1.7-2.3
	C29.4,119.6,32.5,121.9,34.5,125.5z"/>
<path class="st1" d="M53,119.6c0.1-0.2,0.3-0.3,0.5-0.3c0,0,0.1,0,0.1,0.1c2.1,1.7,3.1,3.5,2.8,5.4c-0.2,1.5-0.5,2-1.1,1.6
	c-0.4-0.3-0.8-1.4-1.2-3.2c-0.1-0.5-0.4-1-0.9-1.3C52.7,121.6,52.6,120.8,53,119.6z"/>
<path class="st1" d="M76.5,120.2c0.8,0.2,1.5,0,2.1-0.7c0.2-0.3,0.5-0.5,0.6-0.4c0.2,0,0.2,0.1,0.3,0.3c0,0.1,0,0.2,0,0.4
	c-0.1,0.5-0.2,1.2-0.2,2.1c0,2.3-0.6,3.9-1.9,4.7c-0.9,0.6-1.3,0.3-1.1-0.7c0.3-2.3-0.2-3.9-1.5-4.7c-0.2-0.2-0.3-0.5-0.2-0.8
	c0.5-1.2,0.9-1.5,1.3-0.8C76.1,119.9,76.3,120.1,76.5,120.2z"/>
<path class="st1" d="M64.3,131c-1,1-1.6,0.4-1.8-1.7c-0.2-1.4-0.3-2.8-0.3-4.2c0-0.3,0.2-0.6,0.4-0.7l1.7-0.7c0.3-0.1,0.5,0,0.6,0.3
	c0,0,0,0,0,0c0.6,1.8,0.6,3.6,0.2,5.4C64.9,130.2,64.6,130.7,64.3,131z"/>
<path class="st1" d="M58,133.5c-0.1,0.1-0.3,0.1-0.4-0.1c0,0,0-0.1,0-0.1c-0.8-3.3-0.1-6.2,1.9-8.8c0.2-0.3,0.3-0.2,0.3,0.1
	c0,1.7,0.1,3.5,0.1,5.2C59.9,131.3,59.2,132.5,58,133.5z"/>
<path class="st1" d="M50.5,125.1c-0.9,1.2-1.3,1.3-1,0.1c0.1-0.3,0.3-0.6,0.6-0.7C50.9,124.1,51.1,124.3,50.5,125.1z"/>
<path class="st4" d="M81.3,127c0-0.6,0.2-0.8,0.6-0.7c0.3,0.1,0.4,0.4,0.3,0.8C81.5,128.9,81.2,128.9,81.3,127z"/>
<path class="st1" d="M50.2,135.6c0.7-2.8,0-5-2-6.8l3.8-1.5c0.2-0.1,0.5,0,0.6,0.2l1.2,1.9c0.2,0.3,0.3,0.7,0.3,0.9
	c-0.3,2.3-1.1,4.1-2.4,5.5C51.2,136.4,50.7,136.3,50.2,135.6z"/>
<path class="st1" d="M29.5,127.6c0.3,3.6-0.8,6.8-3.2,9.5c-1.2,1.3-1.8,0.9-1.9-1.3c-0.1-1.8-0.1-3.6-0.1-5.4c0-0.5-0.2-0.8-0.5-0.8
	C25.4,128.2,27.3,127.6,29.5,127.6z"/>
<path class="st3" d="M48.2,128.8c2,1.7,2.7,4,2,6.8l-3,11.7c-0.5,0.8-0.8,1.6-0.9,2.5c0,0.3,0.1,0.6,0.4,0.8l6,3.8
	c0.3,0.2,0.5,0.5,0.5,0.8c0.2,1.6-0.5,2.4-2.3,2.4c-2.5,0.1-4.7-1-6.6-3.2c-0.1-0.1-0.8-0.9-2.4-2.4c-0.9-0.9-1.5-1.9-1.8-3.1
	c-0.2-0.7-0.1-1.9,0.2-3.4c0.6-3.2,0.4-6.4-0.7-9.5c-0.3-2.8,0.4-4.8,2.4-5.9C43.6,128.9,45.7,128.6,48.2,128.8z"/>
<path class="st3" d="M82.7,130.6l2.9,3.2c0.2,0.2,0.3,0.6,0.3,0.9c-0.6,5.3-2.6,10.1-5.8,14.3c-0.1,0.2-0.1,0.4,0.1,0.5
	c0,0,0.1,0,0.1,0.1c2.1,0.8,4.2,1.5,6.4,2c1,0.3,1.7,0.6,2,1c0.8,0.9,0.4,1.8-1.2,2.8l-5.7-0.5l-7.5-3.1c-0.3-0.4-0.6-0.7-1-1
	c-0.8-1-0.9-2.2-0.5-3.5c3.2-5.5,5.8-11.4,7.7-17.5c0.1-0.3,0.4-0.5,0.7-0.5C81.8,129.4,82.3,129.8,82.7,130.6z"/>
<path class="st1" d="M69.7,133.5c0.3,0,0.5,0,0.8,0c0.3,0,0.5,0.2,0.5,0.4c0,0,0,0,0,0c0,1.5-0.4,3-1.5,4.5
	c-0.2,0.3-0.5,0.4-0.8,0.2c0,0-0.1,0-0.1-0.1l-2.2-2.2c-0.2-0.2-0.2-0.5,0-0.9c0.3-0.9,0.3-1.8,0-2.8c-0.1-0.3,0-0.4,0.3-0.2
	c0.6,0.3,1.1,0.6,1.7,0.9C68.9,133.4,69.3,133.5,69.7,133.5z"/>
<path class="st1" d="M60.4,139.3c-0.8-0.1-1.2,0.2-1.3,0.8c-0.1,0.4,0,0.8,0.3,1.3c0.5,0.9,1,1.8,1.6,2.7c0.3,0.5,0.5,0.9,0.5,1.3
	c0,0.8-0.2,1.3-0.6,1.4c-0.8,0.2-1.5-0.2-1.9-0.9c-1.2-2.1-1.5-3.7-1.1-4.8c0.2-0.4,0.3-0.8,0.3-0.9c0.4-2.3,1.3-4.4,2.7-6.2
	c0.2-0.2,0.5-0.3,0.7-0.1c0,0,0,0,0,0c1.4,1.2,1.9,2.7,1.5,4.5c-0.1,0.5-0.2,0.9-0.2,1.3c0,2.6-0.6,2.6-1.9,0.1
	C61,139.5,60.7,139.3,60.4,139.3z"/>
<path class="st1" d="M54.9,135c0.1-0.4,0.3-0.5,0.6-0.2c1.2,1.4,1.5,2.6,0.8,3.8c-0.1,0.2-0.3,0.2-0.5,0.1c0,0-0.1-0.1-0.1-0.1
	C54.9,137.6,54.7,136.4,54.9,135z"/>
<path class="st1" d="M72.4,138.2c0-0.3,0.3-0.4,0.5-0.4c0.1,0,0.1,0,0.2,0.1c1.5,0.8,2.1,2,1.8,3.7c0,0.2-0.3,0.4-0.5,0.3
	c0,0-0.1,0-0.1,0C72.9,141.2,72.3,139.9,72.4,138.2z"/>
<path class="st1" d="M51.2,139.5c0.2-0.6,0.6-0.9,1.1-0.8c0.3,0,0.4,0.3,0.4,0.6c0,0,0,0.1,0,0.1l-1.7,5c-0.1,0.4-0.2,0.4-0.3-0.1
	C50.4,142.6,50.6,141,51.2,139.5z"/>
<path class="st1" d="M67.5,143.8c-0.1,0.2-0.3,0.2-0.4,0.2c0,0-0.1,0-0.1-0.1c-0.6-0.7-0.8-1.7-0.7-3.2c0-0.2,0.2-0.4,0.4-0.4
	c0.1,0,0.1,0,0.2,0.1C68,141,68.2,142.1,67.5,143.8z"/>
<path class="st1" d="M70.5,144.9l0.1-2.1c0-0.4,0.2-0.5,0.5-0.1c0.9,0.9,0.8,1.7-0.4,2.4C70.6,145.1,70.5,145.1,70.5,144.9z"/>
<path class="st1" d="M54.9,143.2c0.3,0,0.6,0.3,0.6,0.6c0,0.1,0,0.1,0,0.2c-1,3.1-1.5,3.4-1.6,0.8C53.8,143.7,54.2,143.2,54.9,143.2
	z"/>
<path class="st1" d="M67.4,147.2c0.2,0,0.3,0.1,0.2,0.2c0,0.1-0.1,0.2-0.2,0.2c-0.7,0.7-1.4,0.7-2.1,0.1c-0.2-0.2-0.3-0.6-0.2-0.9
	c0.3-0.6,0.8-0.6,1.6,0C67,147.1,67.1,147.2,67.4,147.2z"/>
<path class="st1" d="M7.8,149.8l9.9,4c1.8,0.8,1.8,1.4-0.1,2.1c-2.2,0.7-4.6,0.9-7,0.4c-0.5-0.5-0.8-0.4-1,0.2
	c-1.3-1.9-2.1-3.9-2.3-6.2C7.2,149.9,7.4,149.7,7.8,149.8z"/>
<path class="st1" d="M24.7,163.2c0.1-0.5,0.4-0.7,0.7-0.7c0.2,0,0.3,0.2,0.2,0.5c0,0.1,0,0.1-0.1,0.2
	C24.7,164.2,24.4,164.2,24.7,163.2z"/>
</svg>
