<svg fill="#5465ff" viewBox="-76.8 -76.8 665.60 665.60" xmlns="http://www.w3.org/2000/svg"
 stroke="#5465ff" stroke-width="5.12" transform="matrix(1, 0, 0, 1, 0, 0)">
 <g id="SVGRepo_bgCarrier" stroke-width="0" transform="translate(143.36,143.36), scale(0.44)"><path transform="translate(-76.8, -76.8), scale(20.8)" d="M16,31.16130128833983C20.134967412663535,30.606864740717487,21.894835725535405,26.013374459256895,24.17701742832316,22.520953799515354C26.0592987010268,19.64050041747097,28.084825171098547,16.754895333047422,27.64412695969326,13.342304006479598C27.14839148609718,9.503526054394435,25.35335891160895,5.486582533612549,21.783900181163133,3.9896075181761415C18.340531254082975,2.5455125889359125,14.897393977103885,5.117583246306421,11.449344332850645,6.550466138731199C7.561964413830853,8.165918570398675,2.5477467603082533,8.649359947266966,1.0781069792562779,12.59417529246732C-0.516587181867431,16.874662306230135,1.6559810737059162,21.596464546614477,4.517485900393446,25.156999431903223C7.364159273838183,28.69907972428757,11.496092819160681,31.76520707499934,16,31.16130128833983" fill="#80ffff" strokewidth="0"></path></g><g id="SVGRepo_tracerCarrier" stroke-linecap="round" stroke-linejoin="round" stroke="#020202" stroke-width="51.2"><path d="M496 448H16c-8.84 0-16 7.16-16 16v32c0 8.84 7.16 16 16 16h480c8.84 0 16-7.16 16-16v-32c0-8.84-7.16-16-16-16zm-304-64l-64-32 64-32 32-64 32 64 64 32-64 32-16 32h208l-86.41-201.63a63.955 63.955 0 0 1-1.89-45.45L416 0 228.42 107.19a127.989 127.989 0 0 0-53.46 59.15L64 416h144l-16-32zm64-224l16-32 16 32 32 16-32 16-16 32-16-32-32-16 32-16z"></path></g><g id="SVGRepo_iconCarrier"><path d="M496 448H16c-8.84 0-16 7.16-16 16v32c0 8.84 7.16 16 16 16h480c8.84 0 16-7.16 16-16v-32c0-8.84-7.16-16-16-16zm-304-64l-64-32 64-32 32-64 32 64 64 32-64 32-16 32h208l-86.41-201.63a63.955 63.955 0 0 1-1.89-45.45L416 0 228.42 107.19a127.989 127.989 0 0 0-53.46 59.15L64 416h144l-16-32zm64-224l16-32 16 32 32 16-32 16-16 32-16-32-32-16 32-16z"></path></g></svg>